<svg id="Layer_1" xmlns="http://www.w3.org/2000/svg" viewBox="0 0 42 43" width="42" height="43"><style>.st0{fill:none;stroke:#000;stroke-width:2;stroke-miterlimit:10}.st1{display:none}.st3{display:inline}.st4{fill:#33b9d8}.st5{display:none;fill:#00a7ce}.st6{display:inline;fill:#33b9d8}</style><circle class="st0" cx="20.943" cy="21.833" r="20"/><g class="st1"><path class="st3 st4" d="M21.943 11.503l.068 11.08h-2.136l.068-11.08z"/><path class="st3 st4" d="M29.083 31.387l-9.27-9.241 1.442-1.443 9.242 9.27z"/></g><path class="st5" d="M22.039 12.536h-2.584v10.335l9.043 5.426 1.292-2.119-7.751-4.599v-9.043z"/><path class="st0" d="M20.943 21.833V10.771m0 11.062l9.779 9.779"/><g class="st1"><path class="st6" d="M19.938 20.208h2v2h-2z"/><path transform="rotate(-45.001 21.313 22.209)" class="st6" d="M20.313 21.208h2v2h-2z"/></g><path d="M21.947 21.411V20.24h-2v2l1.414 1.414 1.415-1.414z"/></svg>