<svg width="171" height="51" viewBox="0 0 171 51" fill="none" xmlns="http://www.w3.org/2000/svg">
<path d="M137.098 42.5117H33.9973L42.2503 50.7676L137.098 42.5117Z" fill="#BF0000"/>
<path d="M43.6053 9.36483V10.5971C41.6344 9.36483 40.0331 8.62549 37.5695 8.62549C30.3019 8.62549 24.8821 15.1563 24.8821 23.289C24.8821 31.4217 30.4251 37.9525 37.5695 37.9525C39.9099 37.9525 41.6344 37.2132 43.6053 35.9809V37.2132H49.8874V9.36483H43.6053ZM37.5695 31.1752C33.9973 31.1752 31.4106 27.725 31.4106 23.289C31.4106 18.853 33.9973 15.4027 37.5695 15.4027C41.1417 15.4027 43.6053 18.853 43.6053 23.289C43.7284 27.725 41.1417 31.1752 37.5695 31.1752Z" fill="#BF0000"/>
<path d="M94.355 9.36523V25.7539C94.355 28.8344 92.2609 31.4221 89.1815 31.4221C86.102 31.4221 84.0079 28.8344 84.0079 25.7539V9.36523H77.7258V25.7539C77.7258 32.5311 82.2835 37.9529 89.0583 37.9529C92.1378 37.9529 94.4781 36.2278 94.4781 36.2278V37.2136H100.883V9.36523H94.355Z" fill="#BF0000"/>
<path d="M153.48 37.2132V20.8245C153.48 17.744 155.575 15.1563 158.654 15.1563C161.733 15.1563 163.828 17.744 163.828 20.8245V37.2132H170.11V20.8245C170.11 14.0473 165.552 8.62549 158.777 8.62549C155.698 8.62549 153.357 10.3506 153.357 10.3506V9.36483H147.075V37.3364H153.48V37.2132Z" fill="#BF0000"/>
<path d="M6.65166 37.2135V26.3699H11.3324L19.4623 37.2135H27.7152L17.8609 24.1519C20.9404 21.9339 22.9113 18.3604 22.9113 14.2941C22.9113 7.64006 17.4914 2.21826 10.8397 2.21826H0V37.0903H6.65166V37.2135ZM6.65166 8.99551H10.9629C13.9192 8.99551 16.3828 11.46 16.3828 14.4173C16.3828 17.3747 13.9192 19.8391 10.9629 19.8391H6.65166V8.99551Z" fill="#BF0000"/>
<path d="M117.882 30.6825C117.266 31.0522 116.65 31.4219 115.788 31.4219C114.803 31.4219 112.832 30.6825 112.832 27.9716V16.019H118.252V9.36501H112.832V2.34131H106.426V9.36501H103.101V16.019H106.426V28.0949C106.426 34.3792 111.107 38.0759 115.911 38.0759C117.636 38.0759 120.099 37.4598 122.07 36.3508L117.882 30.6825Z" fill="#BF0000"/>
<path d="M65.6543 22.4265L76.6172 9.36493H67.7483L60.1112 19.0995V0H53.5828V37.2133H60.1112V25.7536L69.4728 37.2133H78.3417L65.6543 22.4265Z" fill="#BF0000"/>
<path d="M132.54 8.62549C125.15 8.62549 119.976 15.0331 119.976 23.289C119.976 31.9146 126.628 37.9525 133.156 37.9525C136.482 37.9525 140.793 36.8435 144.365 31.6681L138.822 28.4644C134.511 34.8719 127.244 31.6681 126.381 25.2606H144.612C146.213 15.1563 139.685 8.62549 132.54 8.62549ZM138.083 19.7155H126.628C127.983 13.1847 136.852 12.8151 138.083 19.7155Z" fill="#BF0000"/>
</svg>
